<svg width="1951" height="2152" viewBox="0 0 1951 2152" fill="none" xmlns="http://www.w3.org/2000/svg">
<line y1="-0.5" x2="53.8697" y2="-0.5" transform="matrix(0.942473 0.334282 -0.598799 0.800899 1594.53 171.3)" stroke="black"/>
<line y1="-0.5" x2="101.599" y2="-0.5" transform="matrix(0.948157 0.317802 -0.585601 0.810599 1559.02 184.357)" stroke="black"/>
<line y1="-0.5" x2="147.106" y2="-0.5" transform="matrix(0.949967 0.312349 -0.581155 0.813793 1525.2 196.792)" stroke="black"/>
<line y1="-0.5" x2="192.614" y2="-0.5" transform="matrix(0.95091 0.309469 -0.578791 0.815476 1491.38 209.227)" stroke="black"/>
<line y1="-0.5" x2="243.205" y2="-0.5" transform="matrix(0.954347 0.2987 -0.569848 0.82175 1452.49 223.528)" stroke="black"/>
<line y1="-0.5" x2="289.526" y2="-0.5" transform="matrix(0.953186 0.302383 -0.572925 0.819608 1418.67 235.963)" stroke="black"/>
<line y1="-0.5" x2="333.839" y2="-0.5" transform="matrix(0.949313 0.314332 -0.582777 0.812632 1388.24 247.155)" stroke="black"/>
<line y1="-0.5" x2="384.411" y2="-0.5" transform="matrix(0.951744 0.306895 -0.576667 0.816979 1349.35 261.455)" stroke="black"/>
<line y1="-0.5" x2="435.813" y2="-0.5" transform="matrix(0.952843 0.303464 -0.573824 0.818979 1310.45 275.755)" stroke="black"/>
<line y1="-0.5" x2="409.809" y2="-0.5" transform="matrix(0.951525 0.307572 -0.577227 0.816584 1309.31 298.746)" stroke="black"/>
<line y1="-0.5" x2="359.013" y2="-0.5" transform="matrix(0.951992 0.306121 -0.576028 0.81743 1320.28 328.569)" stroke="black"/>
<line y1="-0.5" x2="309.852" y2="-0.5" transform="matrix(0.950538 0.310609 -0.579728 0.81481 1330.33 355.906)" stroke="black"/>
<line y1="-0.5" x2="258.466" y2="-0.5" transform="matrix(0.948388 0.317113 -0.585042 0.811003 1340.84 384.487)" stroke="black"/>
<line y1="-0.5" x2="207.098" y2="-0.5" transform="matrix(0.945088 0.326816 -0.592864 0.805302 1351.35 413.067)" stroke="black"/>
<line y1="-0.5" x2="151.837" y2="-0.5" transform="matrix(0.94354 0.331257 -0.596403 0.802685 1363.23 445.375)" stroke="black"/>
<line y1="-0.5" x2="102.433" y2="-0.5" transform="matrix(0.944904 0.327347 -0.593289 0.804989 1374.19 475.198)" stroke="black"/>
<line y1="-0.5" x2="53.6583" y2="-0.5" transform="matrix(0.960669 0.277696 -0.551935 0.833887 1385.62 506.263)" stroke="black"/>
<path d="M807 281.5C807 435.798 677.453 561 517.5 561C357.547 561 228 435.798 228 281.5C228 127.202 357.547 2 517.5 2C677.453 2 807 127.202 807 281.5Z" stroke="black" stroke-width="4"/>
<path d="M1949 1176.5C1949 1330.8 1819.45 1456 1659.5 1456C1499.55 1456 1370 1330.8 1370 1176.5C1370 1022.2 1499.55 897 1659.5 897C1819.45 897 1949 1022.2 1949 1176.5Z" stroke="black" stroke-width="4"/>
<line x1="1706.45" y1="994.854" x2="1737.01" y2="1011.32" stroke="black"/>
<line x1="1686.73" y1="1002.1" x2="1744.59" y2="1031.96" stroke="black"/>
<line x1="1667.95" y1="1009" x2="1751.83" y2="1051.67" stroke="black"/>
<line x1="1649.18" y1="1015.9" x2="1759.08" y2="1071.38" stroke="black"/>
<line x1="1627.59" y1="1023.83" x2="1766.67" y2="1092.03" stroke="black"/>
<line x1="1608.82" y1="1030.74" x2="1774.26" y2="1112.68" stroke="black"/>
<line x1="1591.93" y1="1036.95" x2="1782.21" y2="1134.27" stroke="black"/>
<line x1="1570.34" y1="1044.89" x2="1789.79" y2="1154.91" stroke="black"/>
<line x1="1548.75" y1="1052.83" x2="1797.73" y2="1176.5" stroke="black"/>
<line x1="1549.58" y1="1069.57" x2="1783.5" y2="1187.06" stroke="black"/>
<line x1="1557.87" y1="1092.09" x2="1762.85" y2="1194.65" stroke="black"/>
<line x1="1565.46" y1="1112.74" x2="1742.21" y2="1202.24" stroke="black"/>
<line x1="1573.4" y1="1134.33" x2="1720.62" y2="1210.18" stroke="black"/>
<line x1="1581.34" y1="1155.92" x2="1699.04" y2="1218.12" stroke="black"/>
<line x1="1590.32" y1="1180.33" x2="1676.52" y2="1226.41" stroke="black"/>
<line x1="1598.6" y1="1202.85" x2="1656.81" y2="1233.65" stroke="black"/>
<line x1="1607.2" y1="1226.3" x2="1638.01" y2="1240.54" stroke="black"/>
<path d="M581 1870.5C581 2024.8 451.453 2150 291.5 2150C131.547 2150 2 2024.8 2 1870.5C2 1716.2 131.547 1591 291.5 1591C451.453 1591 581 1716.2 581 1870.5Z" stroke="black" stroke-width="4"/>
<line x1="338.445" y1="1688.85" x2="369.005" y2="1705.32" stroke="black"/>
<line x1="318.728" y1="1696.1" x2="376.59" y2="1725.96" stroke="black"/>
<line x1="299.954" y1="1703" x2="383.834" y2="1745.67" stroke="black"/>
<line x1="281.181" y1="1709.9" x2="391.08" y2="1765.38" stroke="black"/>
<line x1="259.589" y1="1717.84" x2="398.668" y2="1786.03" stroke="black"/>
<line x1="240.82" y1="1724.74" x2="406.262" y2="1806.68" stroke="black"/>
<line x1="223.931" y1="1730.95" x2="414.205" y2="1828.27" stroke="black"/>
<line x1="202.341" y1="1738.89" x2="421.794" y2="1848.91" stroke="black"/>
<line x1="180.752" y1="1746.83" x2="429.73" y2="1870.5" stroke="black"/>
<line x1="181.583" y1="1763.57" x2="415.502" y2="1881.06" stroke="black"/>
<line x1="189.865" y1="1786.09" x2="394.853" y2="1888.65" stroke="black"/>
<line x1="197.46" y1="1806.74" x2="374.207" y2="1896.24" stroke="black"/>
<line x1="205.401" y1="1828.33" x2="352.623" y2="1904.18" stroke="black"/>
<line x1="213.343" y1="1849.92" x2="331.041" y2="1912.12" stroke="black"/>
<line x1="222.318" y1="1874.33" x2="308.517" y2="1920.41" stroke="black"/>
<line x1="230.599" y1="1896.85" x2="288.806" y2="1927.65" stroke="black"/>
<line x1="239.202" y1="1920.3" x2="270.011" y2="1934.54" stroke="black"/>
<line y1="-0.5" x2="67.2499" y2="-0.5" transform="matrix(0.7695 -0.638647 0.686022 0.727581 123 1040.95)" stroke="black"/>
<line y1="-0.5" x2="126.008" y2="-0.5" transform="matrix(0.758177 -0.652049 0.698849 0.71527 123 1080.16)" stroke="black"/>
<line y1="-0.5" x2="182.053" y2="-0.5" transform="matrix(0.754361 -0.65646 0.703052 0.711139 123 1117.51)" stroke="black"/>
<line y1="-0.5" x2="238.101" y2="-0.5" transform="matrix(0.752331 -0.658785 0.705263 0.708945 123 1154.86)" stroke="black"/>
<line y1="-0.5" x2="299.357" y2="-0.5" transform="matrix(0.744655 -0.66745 0.713482 0.700673 123 1197.81)" stroke="black"/>
<line y1="-0.5" x2="356.894" y2="-0.5" transform="matrix(0.747296 -0.664492 0.71068 0.703515 123 1235.15)" stroke="black"/>
<line y1="-0.5" x2="413.473" y2="-0.5" transform="matrix(0.755753 -0.654857 0.701525 0.712645 123 1268.77)" stroke="black"/>
<line y1="-0.5" x2="474.706" y2="-0.5" transform="matrix(0.750508 -0.660861 0.707235 0.706978 123 1311.71)" stroke="black"/>
<line y1="-0.5" x2="537.449" y2="-0.5" transform="matrix(0.748068 -0.663622 0.709856 0.704347 123 1354.66)" stroke="black"/>
<line y1="-0.5" x2="506.206" y2="-0.5" transform="matrix(0.750989 -0.660315 0.706717 0.707496 154.845 1364)" stroke="black"/>
<line y1="-0.5" x2="443.206" y2="-0.5" transform="matrix(0.74996 -0.661484 0.707827 0.706386 202.614 1364)" stroke="black"/>
<line y1="-0.5" x2="383.197" y2="-0.5" transform="matrix(0.753136 -0.657865 0.704389 0.709814 246.401 1364)" stroke="black"/>
<line y1="-0.5" x2="320.473" y2="-0.5" transform="matrix(0.757697 -0.652607 0.699381 0.714749 292.179 1364)" stroke="black"/>
<line y1="-0.5" x2="257.772" y2="-0.5" transform="matrix(0.764409 -0.644731 0.691856 0.722036 337.957 1364)" stroke="black"/>
<line y1="-0.5" x2="189.323" y2="-0.5" transform="matrix(0.767445 -0.641115 0.68839 0.725341 389.705 1364)" stroke="black"/>
<line y1="-0.5" x2="127.523" y2="-0.5" transform="matrix(0.764774 -0.644299 0.691442 0.722432 437.473 1364)" stroke="black"/>
<line y1="-0.5" x2="65.5004" y2="-0.5" transform="matrix(0.72928 -0.684215 0.72928 0.684215 487.232 1364)" stroke="black"/>
<line y1="-0.5" x2="67.2499" y2="-0.5" transform="matrix(0.534198 -0.84536 0.877443 0.47968 1452.78 1738.54)" stroke="black"/>
<line y1="-0.5" x2="126.008" y2="-0.5" transform="matrix(0.519285 -0.854601 0.885833 0.464005 1464.91 1775.83)" stroke="black"/>
<line y1="-0.5" x2="182.053" y2="-0.5" transform="matrix(0.514291 -0.857616 0.888552 0.458777 1476.46 1811.35)" stroke="black"/>
<line y1="-0.5" x2="238.101" y2="-0.5" transform="matrix(0.511642 -0.859199 0.889977 0.456006 1488.02 1846.86)" stroke="black"/>
<line y1="-0.5" x2="299.357" y2="-0.5" transform="matrix(0.501661 -0.865064 0.895233 0.445598 1501.3 1887.71)" stroke="black"/>
<line y1="-0.5" x2="356.894" y2="-0.5" transform="matrix(0.505088 -0.863068 0.893448 0.449167 1512.86 1923.22)" stroke="black"/>
<line y1="-0.5" x2="413.473" y2="-0.5" transform="matrix(0.516111 -0.856522 0.887566 0.460681 1523.25 1955.18)" stroke="black"/>
<line y1="-0.5" x2="474.706" y2="-0.5" transform="matrix(0.509266 -0.860609 0.891243 0.453526 1536.54 1996.03)" stroke="black"/>
<line y1="-0.5" x2="537.449" y2="-0.5" transform="matrix(0.506091 -0.86248 0.892921 0.450213 1549.82 2036.87)" stroke="black"/>
<line y1="-0.5" x2="506.206" y2="-0.5" transform="matrix(0.509892 -0.860239 0.890911 0.454179 1583 2035.9)" stroke="black"/>
<line y1="-0.5" x2="443.206" y2="-0.5" transform="matrix(0.508552 -0.861031 0.891622 0.452779 1628.42 2021.12)" stroke="black"/>
<line y1="-0.5" x2="383.197" y2="-0.5" transform="matrix(0.512691 -0.858573 0.889414 0.457103 1670.06 2007.58)" stroke="black"/>
<line y1="-0.5" x2="320.473" y2="-0.5" transform="matrix(0.518655 -0.854984 0.886178 0.463345 1713.59 1993.41)" stroke="black"/>
<line y1="-0.5" x2="257.772" y2="-0.5" transform="matrix(0.527475 -0.849571 0.881276 0.472602 1757.13 1979.25)" stroke="black"/>
<line y1="-0.5" x2="189.323" y2="-0.5" transform="matrix(0.53148 -0.847071 0.879002 0.476817 1806.34 1963.25)" stroke="black"/>
<line y1="-0.5" x2="127.523" y2="-0.5" transform="matrix(0.527955 -0.849272 0.881005 0.473107 1851.76 1948.47)" stroke="black"/>
<line y1="-0.5" x2="65.5004" y2="-0.5" transform="matrix(0.481855 -0.876251 0.905165 0.42506 1899.08 1933.08)" stroke="black"/>
</svg>
