<svg xmlns="http://www.w3.org/2000/svg" version="1.1" xmlns:xlink="http://www.w3.org/1999/xlink" xmlns:svgjs="http://svgjs.dev/svgjs" width="1000" height="623" viewBox="0 0 1000 623"><g transform="matrix(1,0,0,1,-0.6056348047761162,0.15093092818534615)"><svg viewBox="0 0 396 247" data-background-color="#ffffff" preserveAspectRatio="xMidYMid meet" height="623" width="1000" xmlns="http://www.w3.org/2000/svg" xmlns:xlink="http://www.w3.org/1999/xlink"><g id="tight-bounds" transform="matrix(1,0,0,1,0.24008861730862918,5.158893556661951)"><svg viewBox="0 0 395.52 241.90094583220127" height="241.90094583220127" width="395.52"><g><svg viewBox="0 0 395.52 241.90094583220127" height="241.90094583220127" width="395.52"><g transform="matrix(1,0,0,1,0,120.8887183966968)"><svg viewBox="0 0 395.52 121.01222743550449" height="121.01222743550449" width="395.52"><g id="textblocktransform"><svg viewBox="0 0 395.52 121.01222743550449" height="121.01222743550449" width="395.52" id="textblock"><g><svg viewBox="0 0 395.52 91.93837070254048" height="91.93837070254048" width="395.52"><path d="M394.594 19.719C392.735 10.176 387.435 7.523 387.435 7.523 371.165-2.307 350.86-0.188 332.619 1.224 300.414 1.282 268.339 3.381 236.208 4.507 168.767 4.679 100.749 1.854 33.643 8.821 27.339 10.958-6.54 9.241 1.121 20.941 3.129 25.808 10.456 31.209 10.232 35.675 11.236 36.458 12.631 34.664 13.226 35.79 15.309 38.824 18.711 37.393 21.501 39.187 17.614 43.978 20.403 47.967 23.062 52.147 18.377 53.235 12.371 52.719 9.675 56.327 9.396 58.941 7.89 58.445 6.235 58.331 5.026 58.254 2.59 58.541 2.999 59.361 4.394 62.167-1.594 63.789 2.162 66.538-0.422 69.515 3.948 72.092 3.353 75.318 3.278 75.966 3.687 76.52 4.338 76.673 7.22 77.493 3.018 79.097 3.464 80.833 33.029 92.705 65.104 84.498 95.394 89.957 103.259 86.139 97.346 91.312 100.489 90.51 102.943 89.575 104.728 93.45 107.499 91.255 107.927 90.625 107.276 89.136 108.8 89.422 109.6 89.575 110.307 89.537 110.418 88.659 110.586 87.342 109.117 88.163 108.726 87.476 112.947 84.002 111.906 92.266 115.866 91.923 115.68 90.911 114.528 89.461 116.889 89.651 119.232 88.201 119.306 86.998 121.389 90.262 121.463 90.968 121.835 91.465 122.43 91.808 128.938 88.258 135.409 93.068 142.233 91.465 146.417 89.709 150.433 92.419 154.672 91.751 156.16 91.216 157.666 90.262 159.098 91.865 176.632 92.209 195.319 90.777 211.943 91.923 256.364 89.785 303.836 92.801 350.674 89.976 361.719 88.888 373.192 87.342 383.958 86.101 383.958 86.101 392.679 82.704 392.679 67.435S394.538 54.074 394.817 41.916C395.096 29.758 396.398 29.262 394.538 19.719Z" opacity="1" fill="#ff0e00" data-fill-palette-color="tertiary"></path><g transform="matrix(1,0,0,1,55.76832,26.068561146666667)"><svg width="283.98335999999995" viewBox="-0.1 -33.45 238.63 33.45" height="39.801248409207155" data-palette-color="#ffffff"><path d="M11.21-28.34L12.79-28.71 19.14-28.71 21.66-28.3 22.14-30.91 19.31-31.25 12.74-31.25 10.25-30.86 8.69-29.3 8.35-27.25 8.35-14.99 8.69-12.89 10.3-11.35 12.74-11.06 18.85-11.06 21.31-11.35 22.9-12.89 23.24-14.99 23.24-21.41 16.16-21.41 16.16-18.8 20.65-18.8 20.65-15.36Q20.53-14.97 20.48-14.62 20.43-14.28 20.31-13.89L20.31-13.89 18.7-13.65 12.79-13.65 11.3-13.89 10.96-15.45 10.96-27 11.21-28.34ZM10.69-33.45L18.21-33.45Q20.68-33.45 22.68-32.71 24.68-31.98 26.09-30.71 27.49-29.44 28.25-27.75 29-26.05 29-24.15L29-24.15 29-9.3Q29-7.4 28.25-5.7 27.49-4 26.09-2.73 24.68-1.46 22.68-0.73 20.68 0 18.21 0L18.21 0 10.69 0Q8.23 0 6.23-0.73 4.22-1.46 2.82-2.73 1.42-4 0.66-5.7-0.1-7.4-0.1-9.3L-0.1-9.3-0.1-24.15Q-0.1-26.05 0.66-27.75 1.42-29.44 2.82-30.71 4.22-31.98 6.23-32.71 8.23-33.45 10.69-33.45L10.69-33.45ZM39.6-33.45L47.12-33.45Q49.58-33.45 51.58-32.71 53.59-31.98 54.99-30.71 56.39-29.44 57.15-27.75 57.91-26.05 57.91-24.15L57.91-24.15 57.91-9.3Q57.91-7.4 57.15-5.7 56.39-4 54.99-2.73 53.59-1.46 51.58-0.73 49.58 0 47.12 0L47.12 0 39.6 0Q37.13 0 35.13-0.73 33.13-1.46 31.72-2.73 30.32-4 29.56-5.7 28.81-7.4 28.81-9.3L28.81-9.3 28.81-24.15Q28.81-26.05 29.56-27.75 30.32-29.44 31.72-30.71 33.13-31.98 35.13-32.71 37.13-33.45 39.6-33.45L39.6-33.45ZM52-14.99L52-31.25 49.41-31.25 49.41-15.26Q49.36-14.94 49.25-14.58 49.14-14.21 49.05-13.89L49.05-13.89 47.46-13.65 41.21-13.65 39.6-13.89 39.26-15.36 39.26-31.25 36.72-31.25 36.72-14.99 37.01-12.89 38.6-11.35 41.06-11.06 47.6-11.06 50.1-11.35 51.66-12.89 52-14.99ZM79.9-11.06L79.9-13.65 70.16-13.65 70.16-19.85 78.32-19.85 78.32-22.41 70.16-22.41 70.16-28.66 79.56-28.66 79.56-31.25 67.62-31.25 67.62-11.06 79.9-11.06ZM68.5-33.45L76.02-33.45Q78.49-33.45 80.49-32.71 82.49-31.98 83.89-30.71 85.3-29.44 86.05-27.75 86.81-26.05 86.81-24.15L86.81-24.15 86.81-9.3Q86.81-7.4 86.05-5.7 85.3-4 83.89-2.73 82.49-1.46 80.49-0.73 78.49 0 76.02 0L76.02 0 68.5 0Q66.04 0 64.03-0.73 62.03-1.46 60.63-2.73 59.22-4 58.47-5.7 57.71-7.4 57.71-9.3L57.71-9.3 57.71-24.15Q57.71-26.05 58.47-27.75 59.22-29.44 60.63-30.71 62.03-31.98 64.03-32.71 66.04-33.45 68.5-33.45L68.5-33.45ZM97.4-33.45L104.92-33.45Q107.39-33.45 109.39-32.71 111.39-31.98 112.8-30.71 114.2-29.44 114.96-27.75 115.72-26.05 115.72-24.15L115.72-24.15 115.72-9.3Q115.72-7.4 114.96-5.7 114.2-4 112.8-2.73 111.39-1.46 109.39-0.73 107.39 0 104.92 0L104.92 0 97.4 0Q94.94 0 92.94-0.73 90.93-1.46 89.53-2.73 88.13-4 87.37-5.7 86.61-7.4 86.61-9.3L86.61-9.3 86.61-24.15Q86.61-26.05 87.37-27.75 88.13-29.44 89.53-30.71 90.93-31.98 92.94-32.71 94.94-33.45 97.4-33.45L97.4-33.45ZM109.51-14.99L109.51-18.7 109.17-20.8 107.61-22.34 105.07-22.61 99.6-22.61 98.11-22.9Q97.99-23.32 97.94-23.65 97.89-23.97 97.77-24.34L97.77-24.34 97.77-26.9 98.11-28.34 99.72-28.66 105.93-28.66 108.22-28.2 108.81-30.86 105.97-31.25 99.55-31.25 97.11-30.91 95.52-29.35 95.21-27.29 95.21-23.95 95.52-21.9 97.11-20.36 99.55-20.04 105.07-20.04 106.56-19.8Q106.63-19.43 106.73-19.12 106.83-18.8 106.9-18.46L106.9-18.46 106.9-15.26Q106.85-14.94 106.74-14.58 106.63-14.21 106.56-13.89L106.56-13.89 104.97-13.65 98.92-13.65 96.53-14.04 95.92-11.4 98.77-11.06 105.12-11.06 107.61-11.35 109.17-12.89 109.51-14.99ZM126.31-33.45L133.83-33.45Q136.29-33.45 138.3-32.71 140.3-31.98 141.7-30.71 143.11-29.44 143.86-27.75 144.62-26.05 144.62-24.15L144.62-24.15 144.62-9.3Q144.62-7.4 143.86-5.7 143.11-4 141.7-2.73 140.3-1.46 138.3-0.73 136.29 0 133.83 0L133.83 0 126.31 0Q123.84 0 121.84-0.73 119.84-1.46 118.43-2.73 117.03-4 116.27-5.7 115.52-7.4 115.52-9.3L115.52-9.3 115.52-24.15Q115.52-26.05 116.27-27.75 117.03-29.44 118.43-30.71 119.84-31.98 121.84-32.71 123.84-33.45 126.31-33.45L126.31-33.45ZM138.42-14.99L138.42-18.7 138.08-20.8 136.51-22.34 133.97-22.61 128.51-22.61 127.02-22.9Q126.89-23.32 126.85-23.65 126.8-23.97 126.67-24.34L126.67-24.34 126.67-26.9 127.02-28.34 128.63-28.66 134.83-28.66 137.12-28.2 137.71-30.86 134.88-31.25 128.46-31.25 126.02-30.91 124.43-29.35 124.11-27.29 124.11-23.95 124.43-21.9 126.02-20.36 128.46-20.04 133.97-20.04 135.46-19.8Q135.54-19.43 135.63-19.12 135.73-18.8 135.81-18.46L135.81-18.46 135.81-15.26Q135.76-14.94 135.65-14.58 135.54-14.21 135.46-13.89L135.46-13.89 133.88-13.65 127.82-13.65 125.43-14.04 124.82-11.4 127.68-11.06 134.02-11.06 136.51-11.35 138.08-12.89 138.42-14.99ZM170.93-13.79L168.03-30.44 165.61-30.44 162.73-13.79 162.17-13.6 161.53-13.75 159.87-31.25 157.07-30.76 159.02-12.84 160.53-11.35 162.12-10.96 163.73-11.35 165.22-12.84 166.83-23.61 168.42-12.84 169.93-11.35 171.52-10.96 173.13-11.35 174.62-12.84 176.57-30.76 173.76-31.25 172.13-13.75 171.47-13.6 170.93-13.79ZM169.93 0L162.41 0Q159.95 0 157.94-0.73 155.94-1.46 154.54-2.73 153.13-4 152.38-5.7 151.62-7.4 151.62-9.3L151.62-9.3 151.62-24.15Q151.62-26.05 152.38-27.75 153.13-29.44 154.54-30.71 155.94-31.98 157.94-32.71 159.95-33.45 162.41-33.45L162.41-33.45 169.93-33.45Q172.4-33.45 174.4-32.71 176.4-31.98 177.8-30.71 179.21-29.44 179.97-27.75 180.72-26.05 180.72-24.15L180.72-24.15 180.72-9.3Q180.72-7.4 179.97-5.7 179.21-4 177.8-2.73 176.4-1.46 174.4-0.73 172.4 0 169.93 0L169.93 0ZM203.91-11.06L203.91-31.25 201.37-31.25 201.37-22.71 191.22-22.71 191.22-31.25 188.63-31.25 188.63-11.06 191.22-11.06 191.22-20.14 201.37-20.14 201.37-11.06 203.91-11.06ZM191.32-33.45L198.84-33.45Q201.3-33.45 203.3-32.71 205.3-31.98 206.71-30.71 208.11-29.44 208.87-27.75 209.63-26.05 209.63-24.15L209.63-24.15 209.63-9.3Q209.63-7.4 208.87-5.7 208.11-4 206.71-2.73 205.3-1.46 203.3-0.73 201.3 0 198.84 0L198.84 0 191.32 0Q188.85 0 186.85-0.73 184.85-1.46 183.44-2.73 182.04-4 181.28-5.7 180.52-7.4 180.52-9.3L180.52-9.3 180.52-24.15Q180.52-26.05 181.28-27.75 182.04-29.44 183.44-30.71 184.85-31.98 186.85-32.71 188.85-33.45 191.32-33.45L191.32-33.45ZM220.22-33.45L227.74-33.45Q230.2-33.45 232.21-32.71 234.21-31.98 235.61-30.71 237.02-29.44 237.77-27.75 238.53-26.05 238.53-24.15L238.53-24.15 238.53-9.3Q238.53-7.4 237.77-5.7 237.02-4 235.61-2.73 234.21-1.46 232.21-0.73 230.2 0 227.74 0L227.74 0 220.22 0Q217.75 0 215.75-0.73 213.75-1.46 212.35-2.73 210.94-4 210.19-5.7 209.43-7.4 209.43-9.3L209.43-9.3 209.43-24.15Q209.43-26.05 210.19-27.75 210.94-29.44 212.35-30.71 213.75-31.98 215.75-32.71 217.75-33.45 220.22-33.45L220.22-33.45ZM232.77-14.99L232.77-27.29 232.43-29.35 230.89-30.91 228.37-31.25 221.83-31.25 219.34-30.91 217.78-29.35 217.48-27.29 217.48-14.99 217.78-12.89 219.39-11.35 221.83-11.06 228.37-11.06 230.89-11.35 232.43-12.89 232.77-14.99ZM230.18-15.26L229.84-13.89 228.23-13.65 221.98-13.65 220.39-13.89 220.02-15.36 220.02-27.05 220.27-28.39 221.98-28.66 228.23-28.66 229.94-28.39 230.18-26.95 230.18-15.26Z" opacity="1" transform="matrix(1,0,0,1,0,0)" fill="#ffffff" class="wordmark-text-0" data-fill-palette-color="quaternary" id="text-0"></path></svg></g></svg></g><g transform="matrix(1,0,0,1,120.31378283831376,101.33449022199247)"><svg viewBox="0 0 154.89243432337247 19.677737213512017" height="19.677737213512017" width="154.89243432337247"><g transform="matrix(1,0,0,1,0,0)"><svg width="154.89243432337247" viewBox="1.8 -38.35 416.36 52.900000000000006" height="19.677737213512017" data-palette-color="#ff0e00"><path d="M13.6 0.7L13.6 0.7Q6.45 0.7 3.7-2.4L3.7-2.4Q1.8-4.6 1.8-8.55L1.8-8.55Q1.8-10.25 2.15-12.2L2.15-12.2 4.2-23.7Q6.45-36.35 20.45-36.35L20.45-36.35Q26.25-36.35 29.25-33.88 32.25-31.4 32.25-27.1L32.25-27.1Q32.25-25.1 31.68-23.13 31.1-21.15 30.55-20.2L30.55-20.2 30-19.2 21.15-19.2Q22.8-21.1 22.8-24.6L22.8-24.6Q22.8-26.45 21.85-27.53 20.9-28.6 19.05-28.6L19.05-28.6Q14-28.6 13.05-23L13.05-23 11.3-12.9Q11.05-11.6 11.05-10.35L11.05-10.35Q11.05-7.05 15-7.05L15-7.05Q19.75-7.05 20.7-12.4L20.7-12.4 29.7-12.4 29.45-10.95Q27.45 0.7 13.6 0.7ZM43.55 0.7L43.55 0.7Q33.15 0.7 33.15-6.5L33.15-6.5Q33.15-7.5 33.35-8.65L33.35-8.65 34.4-14.85Q35.25-19.65 38.82-22.23 42.4-24.8 48.3-24.8L48.3-24.8Q58.35-24.8 58.35-17.2L58.35-17.2Q58.35-16.1 58.15-14.8L58.15-14.8 57.55-11.25 42.3-11.25 42.1-10.1Q42-9.5 42-9L42-9Q42-6.25 45.25-6.25L45.25-6.25Q46.45-6.25 47.3-7 48.15-7.75 48.3-8.75L48.3-8.75 56.6-8.65Q54.95 0.7 43.55 0.7ZM42.8-14.3L49.55-14.3Q49.75-15.15 49.75-15.88 49.75-16.6 49.1-17.35 48.45-18.1 47.02-18.1 45.6-18.1 44.42-17.15 43.25-16.2 42.8-14.3L42.8-14.3ZM70.35-7.7L70.35-7.7Q70.35-6.4 71.67-6.4 73-6.4 73.9-6.9L73.9-6.9 73.65-1.25Q71.25 0.7 68.25 0.7L68.25 0.7Q63.7 0.7 62.35-1.4L62.35-1.4Q61.5-2.75 61.5-4.35 61.5-5.95 61.7-7.15L61.7-7.15 67.15-37.95 75.65-37.95 70.4-8.3Q70.35-8 70.35-7.7ZM87.09 0.7L87.09 0.7Q76.69 0.7 76.69-6.5L76.69-6.5Q76.69-7.5 76.89-8.65L76.89-8.65 77.94-14.85Q78.79-19.65 82.37-22.23 85.94-24.8 91.84-24.8L91.84-24.8Q101.89-24.8 101.89-17.2L101.89-17.2Q101.89-16.1 101.69-14.8L101.69-14.8 101.09-11.25 85.84-11.25 85.64-10.1Q85.54-9.5 85.54-9L85.54-9Q85.54-6.25 88.79-6.25L88.79-6.25Q89.99-6.25 90.84-7 91.69-7.75 91.84-8.75L91.84-8.75 100.14-8.65Q98.49 0.7 87.09 0.7ZM86.34-14.3L93.09-14.3Q93.29-15.15 93.29-15.88 93.29-16.6 92.64-17.35 91.99-18.1 90.57-18.1 89.14-18.1 87.97-17.15 86.79-16.2 86.34-14.3L86.34-14.3ZM121.74-24.75L121.74-24.75Q126.69-24.75 128.69-22L128.69-22Q130.19-20.05 130.19-17.25L130.19-17.25Q130.19-16.1 129.94-14.85L129.94-14.85 128.94-9.25Q128.09-4.45 124.52-1.88 120.94 0.7 115.52 0.7 110.09 0.7 107.19-1.45L107.19-1.45Q104.89-3.15 104.89-6.2L104.89-6.2Q104.89-7 105.04-7.85L105.04-7.85 110.34-37.95 118.84-37.95 116.29-23.4Q118.39-24.75 121.74-24.75ZM120.64-10.35L121.29-14.1Q121.34-14.5 121.34-15.23 121.34-15.95 120.72-16.78 120.09-17.6 118.02-17.6 115.94-17.6 115.04-16.35L115.04-16.35 113.59-8Q114.19-6.5 116.09-6.5L116.09-6.5Q119.94-6.5 120.64-10.35L120.64-10.35ZM157.34-18.95L157.34-18.95Q157.34-17.25 156.76-15.65 156.19-14.05 155.64-13.3L155.64-13.3 155.09-12.6 147.54-12.6Q148.79-13.75 148.79-15.45L148.79-15.45Q148.79-16.35 148.21-16.93 147.64-17.5 146.64-17.5L146.64-17.5Q144.94-17.5 143.69-15.8L143.69-15.8 140.89 0 132.39 0 136.64-24.05 144.54-24.05 143.94-20.7Q146.79-24.75 150.84-24.75L150.84-24.75Q154.09-24.75 155.71-23.2 157.34-21.65 157.34-18.95ZM169.34-6.4L169.34-6.4Q170.49-6.4 171.38-6.9L171.38-6.9 171.13-1.25Q168.78 0.7 165.78 0.7L165.78 0.7Q161.24 0.7 159.88-1.4L159.88-1.4Q158.99-2.8 158.99-4.38 158.99-5.95 159.19-7.15L159.19-7.15 162.19-24.05 170.69-24.05 167.88-8.3Q167.84-8 167.84-7.75L167.84-7.75Q167.84-6.4 169.34-6.4ZM163.19-32.2L163.19-32.2Q163.19-35.4 164.61-36.88 166.03-38.35 169.03-38.35L169.03-38.35Q173.24-38.35 173.24-34.65L173.24-34.65Q173.24-31.5 171.81-30.05 170.38-28.6 167.34-28.6L167.34-28.6Q163.19-28.6 163.19-32.2ZM185.13 0.7L185.13 0.7Q179.33 0.7 176.78-1.9L176.78-1.9Q174.88-3.8 174.88-7L174.88-7Q174.88-8.05 175.08-9.25L175.08-9.25 178.48-28.6 187.63-32.4 186.18-24.05 199.98-24.05 198.73-17 184.93-17 183.93-11.35Q183.73-10.4 183.73-9.65L183.73-9.65Q183.73-6.5 186.73-6.5L186.73-6.5Q188.33-6.5 189.41-7.85 190.48-9.2 190.88-11.45L190.88-11.45 199.18-11.45Q197.08 0.7 185.13 0.7ZM213.78-24.05L211.43-10.75Q211.28-9.85 211.28-8.95L211.28-8.95Q211.28-6.55 213.98-6.55L213.98-6.55Q216.18-6.55 217.63-8.1L217.63-8.1 220.43-24.05 228.93-24.05 224.53 0.8Q223.43 7.15 219.51 10.85 215.58 14.55 210.53 14.55 205.48 14.55 203.26 12.7 201.03 10.85 201.03 7.85L201.03 7.85Q201.03 3.6 206.28 0.3L206.28 0.3Q203.43-0.4 202.68-2.55L202.68-2.55Q202.23-3.75 202.23-5.25 202.23-6.75 202.48-8.3L202.48-8.3 205.28-24.05 213.78-24.05ZM211.68 7.4L211.68 7.4Q214.93 7.4 215.93 1.5L215.93 1.5 216.43-1.4Q209.48 1.85 209.48 5.15L209.48 5.15Q209.48 6.15 210.06 6.78 210.63 7.4 211.68 7.4ZM268.73-7.8L267.33 0 242.23 0 248.58-36 273.68-36 272.28-28.2 256.18-28.2 255.03-21.45 268.33-21.45 266.93-13.65 253.63-13.65 252.63-7.8 268.73-7.8ZM296.67-7.7L296.67-7.7Q296.67-6.4 298-6.4 299.32-6.4 300.22-6.9L300.22-6.9 299.97-1.25Q297.57 0.7 294.57 0.7L294.57 0.7Q289.07 0.7 288.47-3.3L288.47-3.3Q285.97 0.7 281.12 0.7L281.12 0.7Q272.92 0.7 272.92-6.35L272.92-6.35Q272.92-7.55 273.17-9L273.17-9 274.22-14.85Q275.02-19.35 277.9-22.03 280.77-24.7 285.87-24.7L285.87-24.7Q289.02-24.7 290.87-23.35L290.87-23.35 293.42-37.95 301.97-37.95 296.72-8.3Q296.67-8 296.67-7.7ZM282.52-13.85L281.87-10.1Q281.77-9.65 281.77-8.85 281.77-8.05 282.52-7.28 283.27-6.5 285.05-6.5 286.82-6.5 288.12-7.9L288.12-7.9 289.62-16.3Q289.07-17.55 287.02-17.55L287.02-17.55Q283.17-17.55 282.52-13.85L282.52-13.85ZM314.82-6.4L314.82-6.4Q315.97-6.4 316.87-6.9L316.87-6.9 316.62-1.25Q314.27 0.7 311.27 0.7L311.27 0.7Q306.72 0.7 305.37-1.4L305.37-1.4Q304.47-2.8 304.47-4.38 304.47-5.95 304.67-7.15L304.67-7.15 307.67-24.05 316.17-24.05 313.37-8.3Q313.32-8 313.32-7.75L313.32-7.75Q313.32-6.4 314.82-6.4ZM308.67-32.2L308.67-32.2Q308.67-35.4 310.1-36.88 311.52-38.35 314.52-38.35L314.52-38.35Q318.72-38.35 318.72-34.65L318.72-34.65Q318.72-31.5 317.3-30.05 315.87-28.6 312.82-28.6L312.82-28.6Q308.67-28.6 308.67-32.2ZM330.62 0.7L330.62 0.7Q324.82 0.7 322.27-1.9L322.27-1.9Q320.37-3.8 320.37-7L320.37-7Q320.37-8.05 320.57-9.25L320.57-9.25 323.97-28.6 333.12-32.4 331.67-24.05 345.47-24.05 344.22-17 330.42-17 329.42-11.35Q329.22-10.4 329.22-9.65L329.22-9.65Q329.22-6.5 332.22-6.5L332.22-6.5Q333.82-6.5 334.89-7.85 335.97-9.2 336.37-11.45L336.37-11.45 344.67-11.45Q342.57 0.7 330.62 0.7ZM357.92-6.4L357.92-6.4Q359.07-6.4 359.97-6.9L359.97-6.9 359.72-1.25Q357.37 0.7 354.37 0.7L354.37 0.7Q349.82 0.7 348.47-1.4L348.47-1.4Q347.57-2.8 347.57-4.38 347.57-5.95 347.77-7.15L347.77-7.15 350.77-24.05 359.27-24.05 356.47-8.3Q356.42-8 356.42-7.75L356.42-7.75Q356.42-6.4 357.92-6.4ZM351.77-32.2L351.77-32.2Q351.77-35.4 353.19-36.88 354.62-38.35 357.62-38.35L357.62-38.35Q361.82-38.35 361.82-34.65L361.82-34.65Q361.82-31.5 360.39-30.05 358.97-28.6 355.92-28.6L355.92-28.6Q351.77-28.6 351.77-32.2ZM377.96-24.75L377.96-24.75Q383.36-24.75 386.11-22.4L386.11-22.4Q388.26-20.55 388.26-17.25L388.26-17.25Q388.26-16.15 388.01-14.85L388.01-14.85 386.96-9Q386.01-3.7 382.54-1.5 379.06 0.7 373.26 0.7 367.46 0.7 364.76-1.5L364.76-1.5Q362.76-3.15 362.76-6.45L362.76-6.45Q362.76-7.6 363.01-9L363.01-9 364.06-14.85Q365.81-24.75 377.96-24.75ZM378.66-10.1L379.31-13.85Q379.41-14.35 379.41-15.13 379.41-15.9 378.76-16.85 378.11-17.8 376.49-17.8 374.86-17.8 373.76-16.73 372.66-15.65 372.36-13.85L372.36-13.85 371.71-10.1Q371.61-9.6 371.61-8.83 371.61-8.05 372.26-7.15 372.91-6.25 374.54-6.25 376.16-6.25 377.26-7.38 378.36-8.5 378.66-10.1L378.66-10.1ZM407.31-15.35L407.31-15.35Q407.31-17.5 405.24-17.5 403.16-17.5 401.81-15.95L401.81-15.95 399.01 0 390.51 0 394.76-24.05 402.66-24.05 402.11-21.1Q405.06-24.75 409.56-24.75 414.06-24.75 415.41-22.55L415.41-22.55Q416.26-21.15 416.26-19.35 416.26-17.55 416.01-16L416.01-16 414.66-8.3Q414.61-8 414.61-7.75L414.61-7.75Q414.61-6.4 416.11-6.4L416.11-6.4Q417.26-6.4 418.16-6.9L418.16-6.9 417.91-1.25Q415.56 0.7 412.56 0.7L412.56 0.7Q405.76 0.7 405.76-5L405.76-5Q405.76-6 405.96-7.15L405.96-7.15 407.16-13.8Q407.31-14.7 407.31-15.35Z" opacity="1" transform="matrix(1,0,0,1,0,0)" fill="#ff0e00" class="slogan-text-1" data-fill-palette-color="secondary" id="text-1"></path></svg></g></svg></g></svg></g></svg></g><g transform="matrix(1,0,0,1,154.96584499831766,0)"><svg viewBox="0 0 85.58831000336465 111.49259887724482" height="111.49259887724482" width="85.58831000336465"><g><svg xmlns="http://www.w3.org/2000/svg" viewBox="0 2.6828926706705682 44 57.31710732932943" x="0" y="0" height="111.49259887724482" width="85.58831000336465" class="icon-icon-0" id="icon-0"><path d="M5 0C4.869 0 4.739 0.026 4.617 0.076 4.496 0.126 4.386 0.2 4.293 0.293 4.2 0.386 4.126 0.496 4.076 0.617 4.026 0.739 4 0.869 4 1 3.999 1.795 3.683 2.558 3.12 3.12 2.558 3.683 1.795 3.999 1 4 0.735 4 0.48 4.105 0.293 4.293 0.105 4.48 0 4.735 0 5 0 5.265 0.105 5.52 0.293 5.707 0.48 5.895 0.735 6 1 6 1.795 6.001 2.558 6.317 3.12 6.88 3.683 7.442 3.999 8.205 4 9 4 9.265 4.105 9.52 4.293 9.707 4.48 9.895 4.735 10 5 10 5.265 10 5.52 9.895 5.707 9.707 5.895 9.52 6 9.265 6 9 6.001 8.205 6.317 7.442 6.88 6.88 7.442 6.317 8.205 6.001 9 6 9.265 6 9.52 5.895 9.707 5.707 9.895 5.52 10 5.265 10 5 10 4.735 9.895 4.48 9.707 4.293 9.52 4.105 9.265 4 9 4 8.205 3.999 7.442 3.683 6.88 3.12 6.317 2.558 6.001 1.795 6 1 6 0.869 5.974 0.739 5.924 0.617 5.874 0.496 5.8 0.386 5.707 0.293 5.614 0.2 5.504 0.126 5.383 0.076 5.261 0.026 5.131 0 5 0V0ZM6.031 5C5.639 5.292 5.292 5.639 5 6.031 4.708 5.639 4.361 5.292 3.969 5 4.361 4.708 4.708 4.361 5 3.969 5.292 4.361 5.639 4.708 6.031 5Z" transform="translate(34 34)" fill="#ff0e00" data-fill-palette-color="accent"></path><path d="M1 4C0.735 4 0.48 4.105 0.293 4.293 0.105 4.48 0 4.735 0 5 0 5.265 0.105 5.52 0.293 5.707 0.48 5.895 0.735 6 1 6 1.795 6.001 2.558 6.317 3.12 6.88 3.683 7.442 3.999 8.205 4 9 4 9.265 4.105 9.52 4.293 9.707 4.48 9.895 4.735 10 5 10 5.265 10 5.52 9.895 5.707 9.707 5.895 9.52 6 9.265 6 9 6.001 8.205 6.317 7.442 6.88 6.88 7.442 6.317 8.205 6.001 9 6 9.265 6 9.52 5.895 9.707 5.707 9.895 5.52 10 5.265 10 5 10 4.735 9.895 4.48 9.707 4.293 9.52 4.105 9.265 4 9 4 8.205 3.999 7.442 3.683 6.88 3.12 6.317 2.558 6.001 1.795 6 1 6 0.735 5.895 0.48 5.707 0.293 5.52 0.105 5.265 0 5 0 4.735 0 4.48 0.105 4.293 0.293 4.105 0.48 4 0.735 4 1 3.999 1.795 3.683 2.558 3.12 3.12 2.558 3.683 1.795 3.999 1 4V4ZM6.031 5C5.639 5.292 5.292 5.639 5 6.031 4.708 5.639 4.361 5.292 3.969 5 4.361 4.708 4.708 4.361 5 3.969 5.292 4.361 5.639 4.708 6.031 5V5Z" transform="translate(0 50)" fill="#ff0e00" data-fill-palette-color="accent"></path><path d="M20 0H0V22H20V0ZM18 20H2V2H18V20Z" transform="translate(12 38)" fill="#ff0e00" data-fill-palette-color="accent"></path><path d="M2 4C3.105 4 4 3.105 4 2 4 0.895 3.105 0 2 0 0.895 0 0 0.895 0 2 0 3.105 0.895 4 2 4Z" transform="translate(16 44)" fill="#ff0e00" data-fill-palette-color="accent"></path><path d="M2 4C3.105 4 4 3.105 4 2 4 0.895 3.105 0 2 0 0.895 0 0 0.895 0 2 0 3.105 0.895 4 2 4Z" transform="translate(24 44)" fill="#ff0e00" data-fill-palette-color="accent"></path><path d="M9 0H1C0.802 0 0.609 0.059 0.444 0.169 0.28 0.278 0.152 0.435 0.076 0.617 0 0.8-0.019 1.001 0.019 1.195 0.058 1.389 0.153 1.567 0.293 1.707L4.293 5.707C4.386 5.8 4.496 5.874 4.617 5.924 4.739 5.974 4.869 6 5 6 5.131 6 5.261 5.974 5.383 5.924 5.504 5.874 5.614 5.8 5.707 5.707L9.707 1.707C9.847 1.567 9.942 1.389 9.981 1.195 10.019 1.001 9.999 0.8 9.924 0.617 9.848 0.435 9.72 0.278 9.555 0.168 9.391 0.059 9.198 0 9 0ZM5 3.586L3.414 2H6.586L5 3.586Z" transform="translate(17.0001 50)" fill="#ff0e00" data-fill-palette-color="accent"></path><path d="M10 0C7.752-0.002 5.57 0.754 3.805 2.146 2.04 3.538 0.796 5.484 0.274 7.67-0.249 9.856-0.019 12.154 0.926 14.193 1.871 16.233 3.475 17.894 5.481 18.909L6.008 23.124C6.038 23.366 6.156 23.588 6.338 23.75 6.521 23.911 6.756 24 7 24V27C7 27.131 7.026 27.261 7.076 27.383 7.126 27.504 7.2 27.614 7.293 27.707 7.386 27.8 7.496 27.874 7.617 27.924 7.739 27.974 7.869 28 8 28H12C12.131 28 12.261 27.974 12.383 27.924 12.504 27.874 12.614 27.8 12.707 27.707 12.8 27.614 12.874 27.504 12.924 27.383 12.974 27.261 13 27.131 13 27V24C13.244 24 13.479 23.911 13.662 23.75 13.844 23.588 13.962 23.366 13.992 23.124L14.519 18.909C16.524 17.894 18.129 16.233 19.074 14.194 20.019 12.154 20.249 9.856 19.726 7.67 19.204 5.484 17.96 3.538 16.195 2.146 14.43 0.754 12.248-0.002 10 0V0ZM11 26H9V24H11V26ZM12.117 22H7.883L7.595 19.695C9.172 20.102 10.827 20.102 12.405 19.695L12.117 22ZM10 18C8.418 18 6.871 17.531 5.555 16.652 4.24 15.773 3.214 14.523 2.609 13.062 2.003 11.6 1.845 9.991 2.154 8.439 2.462 6.887 3.224 5.462 4.343 4.343 5.462 3.224 6.887 2.462 8.439 2.154 9.991 1.845 11.6 2.003 13.062 2.609 14.523 3.214 15.773 4.24 16.652 5.555 17.531 6.871 18 8.418 18 10 17.998 12.121 17.154 14.154 15.654 15.654 14.154 17.154 12.121 17.998 10 18Z" transform="translate(12 8)" fill="#ff0e00" data-fill-palette-color="accent"></path><path d="M9.383 0.077C9.2 0.001 8.999-0.019 8.805 0.019 8.611 0.058 8.433 0.153 8.293 0.293L7 1.586 5.707 0.293C5.614 0.2 5.504 0.127 5.383 0.076 5.261 0.026 5.131 0 5 0 4.869 0 4.739 0.026 4.617 0.076 4.496 0.127 4.386 0.2 4.293 0.293L3 1.586 1.707 0.293C1.567 0.153 1.389 0.058 1.195 0.02 1.001-0.019 0.8 0.001 0.617 0.077 0.435 0.152 0.278 0.28 0.168 0.445 0.059 0.609 0 0.803 0 1V5C0 5.266 0.105 5.52 0.293 5.707 0.48 5.895 0.735 6 1 6 1.265 6 1.52 5.895 1.707 5.707 1.895 5.52 2 5.266 2 5V3.414L2.293 3.707C2.386 3.8 2.496 3.874 2.617 3.924 2.739 3.975 2.869 4 3 4 3.131 4 3.261 3.975 3.383 3.924 3.504 3.874 3.614 3.8 3.707 3.707L5 2.414 6.293 3.707C6.386 3.8 6.496 3.874 6.617 3.924 6.739 3.975 6.869 4 7 4 7.131 4 7.261 3.975 7.383 3.924 7.504 3.874 7.614 3.8 7.707 3.707L8 3.414V5C8 5.266 8.105 5.52 8.293 5.707 8.48 5.895 8.735 6 9 6 9.265 6 9.52 5.895 9.707 5.707 9.895 5.52 10 5.266 10 5V1C10 0.803 9.942 0.609 9.832 0.445 9.722 0.28 9.566 0.152 9.383 0.077V0.077Z" transform="translate(17 13.9996)" fill="#ff0e00" data-fill-palette-color="accent"></path><path d="M2 0H0V4H2V0Z" transform="translate(21)" fill="#ff0e00" data-fill-palette-color="accent"></path><path d="M4 0H0V2H4V0Z" transform="translate(36 17)" fill="#ff0e00" data-fill-palette-color="accent"></path><path d="M4 0H0V2H4V0Z" transform="translate(4 17)" fill="#ff0e00" data-fill-palette-color="accent"></path><path d="M2 0H0V4.243H2V0Z" transform="translate(6.29297 4.70703) rotate(-45)" fill="#ff0e00" data-fill-palette-color="accent"></path><path d="M4.243 0H0V2H4.243V0Z" transform="translate(33.293 6.29297) rotate(-45)" fill="#ff0e00" data-fill-palette-color="accent"></path><path d="M4.243 0H0V2H4.243V0Z" transform="translate(6.29297 30.293) rotate(-45)" fill="#ff0e00" data-fill-palette-color="accent"></path><path d="M2 0H0V4.243H2V0Z" transform="translate(33.293 28.707) rotate(-45)" fill="#ff0e00" data-fill-palette-color="accent"></path></svg></g></svg></g><g></g></svg></g><defs></defs></svg><rect width="395.52" height="241.90094583220127" fill="none" stroke="none" visibility="hidden"></rect></g></svg></g></svg>